<?xml version="1.0" encoding="UTF-8"?>
<svg id="Layer_1" data-name="Layer 1" xmlns="http://www.w3.org/2000/svg" xmlns:xlink="http://www.w3.org/1999/xlink" viewBox="0 0 200 150">
  <defs>
    <style>
      .cls-1 {
        fill: url(#linear-gradient-2);
      }

      .cls-2 {
        stroke-width: 2px;
      }

      .cls-2, .cls-3 {
        fill: none;
        stroke: #ed1c24;
        stroke-linecap: round;
        stroke-miterlimit: 10;
      }

      .cls-4 {
        clip-path: url(#clippath-2);
      }

      .cls-3 {
        stroke-width: .5px;
      }

      .cls-5 {
        clip-path: url(#clippath-1);
      }

      .cls-6 {
        fill: url(#linear-gradient-3);
      }

      .cls-7 {
        fill: url(#linear-gradient);
      }

      .cls-8 {
        fill: #231f20;
      }

      .cls-9 {
        fill: url(#linear-gradient-4);
      }
    </style>
    <linearGradient id="linear-gradient" x1="155.22" y1="122.27" x2="112.83" y2="79.87" gradientUnits="userSpaceOnUse">
      <stop offset=".27" stop-color="#000" stop-opacity="0"/>
      <stop offset=".38" stop-color="#090808" stop-opacity=".26"/>
      <stop offset=".66" stop-color="#1c1819" stop-opacity=".8"/>
      <stop offset=".86" stop-color="#231f20"/>
    </linearGradient>
    <clipPath id="clippath-1">
      <polygon class="cls-7" points="123.72 71.11 104.07 90.76 130.93 117.62 168.96 117.62 123.72 71.11"/>
    </clipPath>
    <linearGradient id="linear-gradient-2" x1="155.92" y1="125.83" x2="108.36" y2="78.26" gradientUnits="userSpaceOnUse">
      <stop offset=".74" stop-color="#ed1c24"/>
      <stop offset=".76" stop-color="#e71b23" stop-opacity=".98"/>
      <stop offset=".78" stop-color="#d91921" stop-opacity=".92"/>
      <stop offset=".8" stop-color="#c1161d" stop-opacity=".82"/>
      <stop offset=".83" stop-color="#9f1218" stop-opacity=".67"/>
      <stop offset=".86" stop-color="#740d11" stop-opacity=".49"/>
      <stop offset=".88" stop-color="#3f0709" stop-opacity=".27"/>
      <stop offset=".91" stop-color="#020000" stop-opacity="0"/>
      <stop offset=".91" stop-color="#000" stop-opacity="0"/>
    </linearGradient>
    <linearGradient id="linear-gradient-3" x1="153.98" y1="21.41" x2="86.95" y2="88.44" gradientUnits="userSpaceOnUse">
      <stop offset=".22" stop-color="#000" stop-opacity="0"/>
      <stop offset=".36" stop-color="#0d0c0c" stop-opacity=".39"/>
      <stop offset=".58" stop-color="#1d1a1a" stop-opacity=".84"/>
      <stop offset=".75" stop-color="#231f20"/>
    </linearGradient>
    <clipPath id="clippath-2">
      <polygon class="cls-6" points="84.34 71.4 103.67 91.37 146.61 48.43 146.61 10.4 84.34 71.4"/>
    </clipPath>
    <linearGradient id="linear-gradient-4" x1="148.75" y1="29.49" x2="93.61" y2="84.63" gradientUnits="userSpaceOnUse">
      <stop offset=".71" stop-color="#ed1c24"/>
      <stop offset=".76" stop-color="#ea1b23" stop-opacity=".99"/>
      <stop offset=".79" stop-color="#e11a22" stop-opacity=".95"/>
      <stop offset=".82" stop-color="#d2181f" stop-opacity=".89"/>
      <stop offset=".85" stop-color="#bc161c" stop-opacity=".8"/>
      <stop offset=".87" stop-color="#a01218" stop-opacity=".68"/>
      <stop offset=".9" stop-color="#7e0e13" stop-opacity=".53"/>
      <stop offset=".92" stop-color="#550a0d" stop-opacity=".36"/>
      <stop offset=".94" stop-color="#270406" stop-opacity=".17"/>
      <stop offset=".96" stop-color="#000" stop-opacity="0"/>
    </linearGradient>
  </defs>
  <circle class="cls-3" cx="156.45" cy="122.96" r="1.86"/>
  <rect x=".06" y=".09" width="200.04" height="149.91"/>
  <g>
    <polygon class="cls-7" points="123.72 71.11 104.07 90.76 130.93 117.62 168.96 117.62 123.72 71.11"/>
    <g class="cls-5">
      <path class="cls-1" d="M156.14,117.25l-2.97-2.97c-.39-.39-.64-.87-.76-1.38-.04-.17-.06-.35-.07-.52,0-.03,0-.06,0-.09,0-.1,0-.2,.01-.29,0-.02,0-.04,0-.06,0-.03,0-.05,0-.08,0-.03,0-.06,.01-.08,0-.03,.01-.06,.02-.08,0-.03,.01-.06,.02-.08,0-.03,.01-.06,.02-.08,0-.03,.02-.06,.02-.09,0-.02,.01-.04,.02-.06,.03-.09,.07-.18,.11-.27,0-.02,.02-.04,.03-.06,.03-.06,.06-.12,.09-.18,.01-.02,.03-.05,.05-.08,.02-.02,.03-.05,.05-.08,0,0,.01-.02,.02-.03,.03-.04,.06-.08,.09-.12,0,0,0,0,0,0,.04-.05,.08-.1,.12-.14,.04-.05,.08-.09,.13-.14l1.95-1.95c.36-.36,.79-.6,1.25-.72,.03,0,.06-.02,.08-.02,.42-.1,.86-.11,1.28,0,.04,0,.09,.02,.13,.03,.46,.12,.89,.37,1.25,.72l2.97,2.97c.36,.36,.6,.78,.72,1.23,0,0,0,0,0,0,.01,.05,.02,.09,.03,.14,.1,.45,.09,.92-.03,1.37-.1,.38-.29,.74-.56,1.06,0,0-.02,.02-.03,.03-.04,.05-.09,.1-.14,.15-.05,.05-.1,.1-.15,.14l-1.66,1.66c-.04,.05-.09,.1-.14,.16-.05,.05-.1,.1-.15,.14-.01,0-.02,.02-.03,.03-.32,.27-.68,.45-1.06,.56-.45,.12-.92,.13-1.37,.03-.05,0-.09-.02-.14-.03,0,0,0,0,0,0-.45-.12-.88-.37-1.23-.72Zm-1.96-5.95c-.54,.54-.54,1.43,0,1.97l2.97,2.97c.5,.5,1.29,.54,1.84,.12,0,0,.02-.01,.02-.02l.21-.2s.01-.02,.02-.02l1.71-1.71s.02-.01,.02-.02l.2-.2s.01-.02,.02-.02c.43-.55,.39-1.34-.12-1.84l-2.97-2.97c-.54-.54-1.43-.54-1.97,0l-1.95,1.95Zm-15.71-11.72l-2.97-2.97c-.39-.39-.64-.87-.76-1.37-.04-.17-.06-.34-.07-.52v-.09c0-.1,0-.19,.01-.29,0-.02,0-.04,0-.06,0-.03,0-.05,0-.08,0-.03,0-.06,.01-.08,0-.03,0-.06,.01-.08,0-.03,.01-.06,.02-.08,0-.03,.01-.06,.02-.08,0-.03,.02-.06,.03-.08,0-.02,.01-.04,.02-.06,.03-.09,.07-.18,.11-.27,0-.02,.02-.04,.03-.06,.03-.06,.06-.12,.09-.18,.01-.03,.03-.05,.05-.08,.02-.03,.03-.05,.05-.08,0,0,.01-.02,.02-.03,.03-.04,.06-.08,.09-.12,0,0,0,0,0,0,.04-.05,.07-.09,.12-.14,.04-.05,.08-.09,.13-.14l1.95-1.95c.36-.36,.79-.6,1.25-.72,.03,0,.06-.01,.09-.02,.42-.1,.86-.1,1.28,0,.04,0,.09,.02,.13,.03,.46,.13,.89,.37,1.25,.72l2.97,2.97c.36,.36,.6,.78,.72,1.23h0s.03,.09,.04,.14c.1,.45,.09,.92-.03,1.36-.1,.38-.29,.74-.56,1.06,0,.01-.02,.02-.03,.03-.05,.05-.09,.1-.14,.15-.05,.05-.1,.1-.15,.14l-1.66,1.66c-.05,.05-.09,.1-.14,.15-.05,.05-.1,.1-.15,.14-.01,0-.02,.02-.03,.03-.32,.27-.68,.45-1.06,.56-.44,.12-.92,.13-1.36,.03-.05-.01-.09-.02-.14-.04h0c-.45-.13-.88-.37-1.23-.72Zm-1.96-5.95c-.54,.54-.54,1.43,0,1.97l2.97,2.97c.5,.5,1.29,.54,1.84,.12,0,0,.02-.01,.02-.02l.2-.21s.01-.01,.02-.02l1.71-1.71s.01-.01,.02-.02l.2-.2s.01-.02,.02-.02c.42-.55,.39-1.34-.12-1.84l-2.97-2.97c-.54-.54-1.43-.54-1.97,0l-1.95,1.95Zm-6.36-2.37l-2.97-2.97c-.39-.39-.64-.87-.76-1.38-.04-.17-.06-.34-.07-.52,0-.03,0-.06,0-.09,0-.1,0-.19,.01-.29,0-.02,0-.04,0-.06,0-.03,0-.05,0-.08,0-.03,0-.06,.01-.08s0-.06,.02-.08c0-.03,.01-.06,.02-.08,0-.03,.01-.06,.02-.08,0-.03,.02-.06,.03-.09,0-.02,.01-.04,.02-.06,.03-.09,.07-.18,.11-.27,0-.02,.02-.04,.03-.06,.03-.06,.06-.12,.09-.18,.02-.03,.03-.05,.05-.08,.02-.02,.03-.05,.05-.08,0,0,.01-.02,.02-.03,.03-.04,.06-.08,.09-.12,0,0,0,0,0,0,.04-.05,.08-.1,.12-.14,.04-.05,.08-.09,.13-.14l1.95-1.95c.36-.36,.79-.6,1.25-.73,.03,0,.06-.02,.08-.02,.42-.1,.86-.1,1.28-.01,.04,0,.09,.02,.13,.03,.46,.12,.89,.37,1.25,.73l2.97,2.97c.36,.36,.6,.78,.72,1.23,0,0,0,0,0,0,.01,.05,.03,.09,.04,.14,.1,.45,.09,.92-.03,1.37-.1,.38-.29,.74-.56,1.06,0,.01-.02,.02-.03,.03-.04,.05-.09,.1-.14,.15s-.1,.1-.15,.14l-1.66,1.66c-.04,.05-.09,.1-.14,.15-.05,.05-.1,.1-.15,.14-.01,0-.02,.02-.03,.03-.32,.27-.68,.45-1.06,.56-.44,.12-.92,.13-1.37,.03-.05-.01-.09-.02-.14-.04,0,0,0,0,0,0-.45-.13-.88-.37-1.23-.72Zm-1.96-5.95c-.54,.54-.54,1.43,0,1.97l2.97,2.97c.5,.5,1.29,.54,1.84,.12,0,0,.02-.01,.02-.02l.2-.2s.01-.02,.02-.02l1.7-1.7s.02-.01,.02-.02l.2-.21s.01-.01,.02-.02c.42-.55,.39-1.34-.12-1.84l-2.97-2.97c-.54-.54-1.43-.54-1.97,0l-1.95,1.95Zm-5.17,13.08l-2.97-2.97c-.39-.39-.64-.87-.76-1.37-.04-.17-.06-.34-.07-.52,0-.03,0-.06,0-.09,0-.1,0-.19,.01-.29,0-.02,0-.04,0-.06,0-.03,0-.05,0-.08,0-.03,0-.06,.01-.08s0-.06,.02-.08c0-.03,.01-.06,.02-.08,0-.03,.01-.06,.02-.08,0-.03,.02-.06,.03-.08,0-.02,.01-.04,.02-.06,.03-.09,.07-.18,.11-.27,0-.02,.02-.04,.03-.06,.03-.06,.06-.12,.09-.18,.01-.03,.03-.05,.05-.08,.02-.03,.03-.05,.05-.08,0-.01,.01-.02,.02-.03,.03-.04,.06-.08,.09-.12,0,0,0,0,0,0,.04-.05,.08-.09,.12-.14,.04-.05,.08-.09,.13-.14l1.95-1.95c.36-.36,.79-.6,1.24-.72,.03,0,.06-.02,.09-.02,.42-.1,.86-.1,1.28,0,.04,0,.09,.02,.13,.03,.46,.12,.89,.37,1.25,.72l2.97,2.97c.36,.36,.6,.78,.72,1.23,0,0,0,0,0,0,.01,.05,.03,.09,.04,.14,.1,.45,.09,.92-.03,1.37-.1,.38-.29,.74-.55,1.06,0,.01-.02,.02-.03,.03-.04,.05-.09,.1-.14,.15s-.1,.1-.15,.14l-1.66,1.66c-.04,.05-.09,.1-.14,.15s-.1,.1-.15,.14c-.01,0-.02,.02-.03,.03-.32,.27-.68,.45-1.06,.56-.44,.12-.92,.13-1.37,.03-.05,0-.09-.02-.14-.04h0c-.45-.13-.88-.37-1.23-.72Zm-1.96-5.95c-.54,.54-.54,1.43,0,1.97l2.97,2.97c.5,.5,1.29,.54,1.84,.12,0,0,.02-.01,.02-.02l.2-.21s.01-.01,.02-.02l1.71-1.71s.02-.01,.02-.02l.2-.21s.01-.01,.02-.02c.43-.55,.39-1.34-.12-1.84l-2.97-2.97c-.54-.54-1.43-.54-1.97,0l-1.95,1.95Zm11.31,30.51l-2.97-2.97c-.39-.39-.64-.87-.76-1.37-.04-.17-.06-.34-.07-.52,0-.03,0-.06,0-.09,0-.1,0-.19,.01-.29,0-.02,0-.04,0-.06,0-.02,0-.05,0-.08,0-.03,0-.06,.01-.08,0-.03,.01-.06,.02-.09,0-.03,.01-.06,.02-.08,0-.03,.01-.06,.02-.08,0-.03,.02-.06,.02-.08,0-.02,.01-.04,.02-.06,.03-.09,.07-.18,.1-.27,.01-.02,.02-.04,.03-.06,.03-.06,.06-.12,.09-.18,.01-.03,.03-.05,.05-.08,.01-.02,.03-.05,.05-.08,0,0,.01-.02,.02-.03,.03-.04,.06-.08,.09-.12h0c.04-.05,.08-.1,.12-.14,.04-.05,.08-.09,.13-.14l1.95-1.95c.36-.36,.79-.6,1.25-.72,.03,0,.06-.02,.08-.02,.42-.1,.86-.1,1.28,0,.04,0,.09,.02,.13,.03,.46,.12,.89,.37,1.25,.72l2.97,2.97c.36,.36,.6,.78,.72,1.23h0s.02,.09,.04,.14c.1,.45,.09,.92-.03,1.37-.1,.38-.29,.74-.56,1.06,0,.01-.02,.02-.03,.03-.04,.05-.09,.1-.14,.15s-.1,.1-.15,.14l-1.66,1.66c-.05,.05-.09,.1-.14,.15s-.1,.1-.15,.14c-.01,0-.02,.02-.03,.03-.32,.27-.68,.45-1.06,.56-.45,.12-.92,.13-1.37,.03-.05-.01-.09-.02-.14-.04,0,0,0,0,0,0-.45-.13-.88-.37-1.23-.72Zm-1.96-5.95c-.54,.54-.54,1.43,0,1.97l2.97,2.97c.5,.5,1.29,.54,1.84,.12,0,0,.01-.01,.02-.02l.21-.21s.01-.01,.02-.02l1.71-1.71s.02-.01,.02-.02l.21-.21s.01-.01,.02-.02c.42-.55,.39-1.34-.12-1.84l-2.97-2.97c-.54-.54-1.43-.54-1.97,0l-1.95,1.95Zm-6.68-2.69l-2.97-2.97c-.39-.39-.64-.87-.76-1.37-.04-.17-.06-.35-.07-.52,0-.03,0-.06,0-.09,0-.1,0-.2,.01-.29,0-.02,0-.04,0-.06,0-.03,0-.05,0-.08,0-.03,0-.06,.01-.08,0-.03,.01-.06,.02-.08,0-.03,.01-.06,.02-.08l.02-.08s.02-.06,.02-.08c0-.02,.01-.04,.02-.06,.03-.09,.07-.18,.11-.27,0-.02,.02-.04,.03-.06,.03-.06,.06-.12,.09-.18,.02-.03,.03-.05,.05-.08,.02-.03,.03-.05,.05-.08,0-.01,.01-.02,.02-.03,.03-.04,.06-.08,.09-.12h0c.04-.05,.08-.1,.12-.14,.04-.05,.08-.09,.13-.14l1.95-1.95c.36-.36,.79-.6,1.25-.72,.03,0,.06-.02,.08-.02,.42-.1,.86-.11,1.28,0,.04,0,.09,.02,.13,.03,.46,.12,.89,.37,1.25,.72l2.97,2.97c.36,.36,.6,.78,.72,1.23,0,0,0,0,0,0,.01,.05,.02,.09,.03,.14,.1,.45,.09,.92-.03,1.37-.1,.38-.29,.74-.56,1.06,0,.01-.02,.02-.03,.03-.04,.05-.09,.1-.14,.15s-.1,.1-.15,.14l-1.66,1.66c-.04,.05-.09,.1-.14,.15s-.1,.1-.15,.14c-.01,0-.02,.02-.03,.03-.32,.27-.68,.45-1.06,.56-.45,.12-.92,.13-1.37,.03-.05,0-.09-.02-.14-.03,0,0,0,0,0,0-.45-.12-.88-.37-1.23-.72Zm-1.96-5.95c-.54,.54-.54,1.43,0,1.97l2.97,2.97c.5,.5,1.29,.54,1.84,.12,0,0,.02-.01,.02-.02l.21-.21s.01-.01,.02-.02l1.7-1.7s.02-.01,.02-.02l.21-.21s.01-.01,.02-.02c.43-.55,.39-1.34-.12-1.84l-2.97-2.97c-.54-.54-1.43-.54-1.97,0l-1.95,1.95Zm-6.28-2.29l-2.97-2.97c-.39-.39-.64-.87-.76-1.37-.04-.17-.06-.35-.07-.52,0-.03,0-.06,0-.09,0-.1,0-.2,.01-.29,0-.02,0-.04,0-.06,0-.02,0-.05,0-.08v-.08s.03-.06,.03-.09c0-.03,.01-.06,.02-.08,0-.03,.01-.06,.02-.08,0-.03,.02-.06,.03-.09,0-.02,.01-.04,.02-.06,.03-.09,.07-.18,.11-.27,0-.02,.02-.04,.03-.06,.03-.06,.06-.12,.09-.18,.01-.03,.03-.05,.05-.08,.02-.02,.03-.05,.05-.08,0,0,.01-.02,.02-.03,.03-.04,.06-.08,.09-.12,0,0,0,0,0,0,.04-.05,.07-.1,.12-.14,.04-.05,.08-.09,.13-.14l1.95-1.95c.36-.36,.79-.6,1.25-.72,.03,0,.06-.02,.08-.02,.42-.1,.86-.11,1.28-.01,.04,0,.09,.02,.13,.03,.46,.12,.89,.37,1.25,.72l2.97,2.97c.36,.36,.6,.78,.72,1.23,0,0,0,0,0,0,.01,.05,.03,.09,.04,.14,.1,.45,.09,.92-.03,1.37-.1,.38-.29,.74-.56,1.06l-.03,.03c-.04,.05-.09,.1-.14,.15s-.1,.1-.15,.14l-1.66,1.66c-.04,.05-.09,.1-.14,.16-.05,.05-.1,.1-.16,.14,0,0-.02,.02-.03,.03-.32,.27-.68,.45-1.06,.56-.44,.12-.92,.13-1.37,.03-.05,0-.09-.02-.14-.03,0,0,0,0,0,0-.45-.12-.88-.37-1.23-.72Zm-1.96-5.95c-.54,.54-.54,1.43,0,1.97l2.97,2.97c.5,.5,1.29,.54,1.84,.12,0,0,.02-.01,.02-.02l.2-.2s.01-.02,.02-.02l1.71-1.7s.02-.01,.02-.02l.2-.21s.01-.01,.02-.02c.43-.55,.39-1.34-.12-1.84l-2.97-2.97c-.54-.54-1.43-.54-1.97,0l-1.95,1.95Zm1.32-9.9l-2.97-2.97c-.39-.39-.64-.87-.76-1.38-.04-.17-.06-.34-.07-.52,0-.03,0-.06,0-.09,0-.1,0-.19,.01-.29,0-.02,0-.04,0-.06,0-.03,0-.05,0-.08,0-.03,0-.06,.01-.08,0-.03,.01-.06,.02-.08,0-.03,.01-.06,.02-.08l.02-.08s.02-.06,.02-.09c0-.02,.01-.04,.02-.06,.03-.09,.07-.18,.11-.27,0-.02,.02-.04,.03-.06,.03-.06,.06-.12,.09-.18,.02-.03,.03-.05,.05-.08,.02-.03,.03-.05,.05-.08,0-.01,.01-.02,.02-.03,.03-.04,.06-.08,.09-.12,0,0,0,0,0,0,.04-.05,.08-.1,.12-.14,.04-.05,.08-.09,.13-.14l1.95-1.95c.36-.36,.79-.6,1.25-.72,.03,0,.06-.02,.08-.02,.42-.1,.86-.1,1.28,0,.04,0,.09,.02,.13,.03,.46,.12,.89,.37,1.25,.72l2.97,2.97c.36,.36,.6,.78,.72,1.23,0,0,0,0,0,0,.01,.05,.02,.09,.03,.14,.1,.45,.09,.92-.03,1.37-.1,.38-.29,.74-.56,1.06,0,.01-.02,.02-.03,.03-.04,.05-.09,.1-.14,.15s-.1,.1-.15,.14l-1.66,1.66c-.04,.05-.09,.1-.14,.15s-.1,.1-.15,.14c-.01,0-.02,.02-.03,.03-.32,.27-.68,.45-1.06,.56-.45,.12-.92,.13-1.37,.03-.05,0-.09-.02-.14-.03,0,0,0,0,0,0-.45-.12-.88-.37-1.23-.72Zm-1.96-5.95c-.54,.54-.54,1.43,0,1.97l2.97,2.97c.5,.5,1.29,.54,1.84,.12,0,0,.02-.01,.02-.02l.21-.21s.01-.01,.02-.02l1.7-1.7s.02-.01,.02-.02l.21-.21s.01-.02,.02-.02c.43-.55,.39-1.34-.12-1.84l-2.97-2.97c-.54-.54-1.43-.54-1.97,0l-1.95,1.95Zm36.92,22.37l-5.93-5.93,1.01-1.01,5.93,5.93,.98-.98,1.01,1.01-1.99,1.99-1.01-1.01Zm2.38,15.37l-5.93-5.93,1.01-1.01,5.93,5.93,.98-.98,1.01,1.01-1.99,1.99-1.01-1.01Zm-8.4-8.08l-5.93-5.93,1.01-1.01,5.93,5.93,.98-.98,1.01,1.01-1.99,1.99-1.01-1.01Zm-8.64-8.64l-5.93-5.93,1.01-1.01,5.93,5.93,.98-.98,1.01,1.01-1.99,1.99-1.01-1.01Zm-25.27-8.79l-5.93-5.93,1.01-1.01,5.93,5.93,.98-.98,1.01,1.01-1.99,1.99-1.01-1.01Zm15.29-14.97l-5.93-5.93,1.01-1.01,5.93,5.93,.98-.98,1.01,1.01-1.99,1.99-1.01-1.01Z"/>
    </g>
  </g>
  <polygon class="cls-8" points="104.13 52.26 84.45 71.52 44.85 31.02 82.89 31.02 104.13 52.26"/>
  <polygon class="cls-8" points="84.98 70.91 60.11 95.23 60.11 135.16 104.47 90.82 84.98 70.91"/>
  <g>
    <polygon class="cls-6" points="84.34 71.4 103.67 91.37 146.61 48.43 146.61 10.4 84.34 71.4"/>
    <g class="cls-4">
      <path class="cls-9" d="M146.24,23.21l-2.97,2.97c-.39,.39-.87,.64-1.38,.76-.17,.04-.34,.06-.52,.07h-.09c-.1,0-.19,0-.29-.01-.02,0-.04,0-.06,0-.03,0-.05,0-.08,0-.03,0-.06,0-.08-.01-.03,0-.06,0-.08-.02-.03,0-.06-.01-.08-.02-.03,0-.06-.01-.08-.02l-.09-.03s-.04-.01-.06-.02c-.09-.03-.18-.07-.27-.11-.02,0-.04-.02-.06-.03-.06-.03-.12-.06-.18-.09-.03-.01-.05-.03-.08-.05-.03-.02-.05-.03-.08-.05-.01,0-.02-.01-.03-.02-.04-.03-.08-.06-.12-.09,0,0,0,0,0,0-.05-.04-.1-.07-.14-.11-.05-.04-.09-.08-.14-.13l-1.95-1.95c-.36-.36-.6-.79-.72-1.25,0-.03-.02-.06-.02-.09-.1-.42-.1-.86-.01-1.28,0-.04,.02-.09,.03-.13,.12-.46,.37-.89,.72-1.25l2.97-2.97c.36-.36,.78-.6,1.23-.72h0s.09-.02,.14-.04c.45-.1,.92-.09,1.37,.03,.38,.1,.74,.29,1.06,.56,.01,0,.02,.02,.03,.03,.05,.05,.1,.09,.15,.14,.05,.05,.1,.1,.14,.15l1.66,1.66c.05,.05,.1,.09,.15,.14,.05,.05,.1,.1,.14,.15,0,.01,.02,.02,.03,.03,.27,.32,.45,.68,.56,1.06,.12,.44,.13,.92,.03,1.36-.01,.05-.02,.09-.04,.14,0,0,0,0,0,0-.13,.45-.37,.88-.72,1.23Zm-5.95,1.96c.54,.54,1.43,.54,1.97,0l2.97-2.97c.5-.5,.54-1.29,.12-1.84,0,0-.01-.02-.02-.02l-.21-.2s-.02-.01-.02-.02l-1.71-1.71s-.01-.01-.02-.02l-.2-.2s-.02-.01-.02-.02c-.55-.42-1.34-.39-1.84,.12l-2.97,2.97c-.54,.54-.54,1.43,0,1.97l1.95,1.95Zm-11.72,15.71l-2.97,2.97c-.39,.39-.87,.64-1.38,.76-.17,.04-.34,.06-.52,.07h-.09c-.1,0-.19,0-.29-.01-.02,0-.04,0-.06,0-.03,0-.05,0-.08,0-.03,0-.06,0-.08-.01-.03,0-.06,0-.08-.02-.03,0-.06-.01-.08-.02-.03,0-.06-.01-.08-.02l-.09-.03s-.04-.01-.06-.02c-.09-.03-.18-.07-.27-.11-.02,0-.04-.02-.06-.03-.06-.03-.12-.06-.18-.09-.03-.01-.05-.03-.08-.05-.03-.02-.05-.03-.08-.05-.01,0-.02-.01-.03-.02-.04-.03-.08-.06-.12-.09,0,0,0,0,0,0-.05-.04-.1-.07-.14-.11-.05-.04-.09-.08-.14-.13l-1.95-1.95c-.36-.36-.6-.79-.72-1.25,0-.03-.02-.06-.02-.09-.1-.42-.1-.86-.01-1.28,0-.04,.02-.09,.03-.13,.12-.46,.37-.89,.72-1.25l2.97-2.97c.36-.36,.78-.6,1.23-.72h0s.09-.02,.14-.04c.45-.1,.92-.09,1.37,.03,.38,.1,.74,.29,1.06,.56,.01,0,.02,.02,.03,.03,.05,.05,.1,.09,.15,.14,.05,.05,.1,.1,.14,.15l1.66,1.66c.05,.05,.1,.09,.15,.14,.05,.05,.1,.1,.14,.15,0,.01,.02,.02,.03,.03,.27,.32,.45,.68,.56,1.06,.12,.44,.13,.92,.03,1.36-.01,.05-.02,.09-.04,.14,0,0,0,0,0,0-.13,.45-.37,.88-.72,1.23Zm-5.95,1.96c.54,.54,1.43,.54,1.97,0l2.97-2.97c.5-.5,.54-1.29,.12-1.84,0,0-.01-.02-.02-.02l-.21-.2s-.02-.01-.02-.02l-1.71-1.71s-.01-.01-.02-.02l-.2-.2s-.02-.01-.02-.02c-.55-.42-1.34-.39-1.84,.12l-2.97,2.97c-.54,.54-.54,1.43,0,1.97l1.95,1.95Zm-2.37,6.36l-2.97,2.97c-.39,.39-.87,.64-1.38,.76-.17,.04-.34,.06-.52,.07h-.09c-.1,0-.19,0-.29-.01-.02,0-.04,0-.06,0-.03,0-.05,0-.08,0-.03,0-.06,0-.08-.01-.03,0-.06,0-.08-.02-.03,0-.06-.01-.08-.02-.03,0-.06-.01-.08-.02l-.09-.03s-.04-.01-.06-.02c-.09-.03-.18-.07-.27-.11-.02,0-.04-.02-.06-.03-.06-.03-.12-.06-.18-.09-.03-.01-.05-.03-.08-.05-.03-.02-.05-.03-.08-.05-.01,0-.02-.01-.03-.02-.04-.03-.08-.06-.12-.09,0,0,0,0,0,0-.05-.04-.1-.07-.14-.11-.05-.04-.09-.08-.14-.13l-1.95-1.95c-.36-.36-.6-.79-.72-1.25,0-.03-.02-.06-.02-.09-.1-.42-.1-.86-.01-1.28,0-.04,.02-.09,.03-.13,.12-.46,.37-.89,.72-1.25l2.97-2.97c.36-.36,.78-.6,1.23-.72h0s.09-.02,.14-.04c.45-.1,.92-.09,1.37,.03,.38,.1,.74,.29,1.06,.56,.01,0,.02,.02,.03,.03,.05,.05,.1,.09,.15,.14,.05,.05,.1,.1,.14,.15l1.66,1.66c.05,.05,.1,.09,.15,.14,.05,.05,.1,.1,.14,.15,0,.01,.02,.02,.03,.03,.27,.32,.45,.68,.56,1.06,.12,.44,.13,.92,.03,1.36-.01,.05-.02,.09-.04,.14,0,0,0,0,0,0-.13,.45-.37,.88-.72,1.23Zm-5.95,1.96c.54,.54,1.43,.54,1.97,0l2.97-2.97c.5-.5,.54-1.29,.12-1.84,0,0-.01-.02-.02-.02l-.21-.2s-.02-.01-.02-.02l-1.71-1.71s-.01-.01-.02-.02l-.2-.2s-.02-.01-.02-.02c-.55-.42-1.34-.39-1.84,.12l-2.97,2.97c-.54,.54-.54,1.43,0,1.97l1.95,1.95Zm13.08,5.17l-2.97,2.97c-.39,.39-.87,.64-1.38,.76-.17,.04-.34,.06-.52,.07h-.09c-.1,0-.19,0-.29-.01-.02,0-.04,0-.06,0-.03,0-.05,0-.08,0-.03,0-.06,0-.08-.01-.03,0-.06,0-.08-.02-.03,0-.06-.01-.08-.02-.03,0-.06-.01-.08-.02l-.09-.03s-.04-.01-.06-.02c-.09-.03-.18-.07-.27-.11-.02,0-.04-.02-.06-.03-.06-.03-.12-.06-.18-.09-.03-.01-.05-.03-.08-.05-.03-.02-.05-.03-.08-.05-.01,0-.02-.01-.03-.02-.04-.03-.08-.06-.12-.09,0,0,0,0,0,0-.05-.04-.1-.07-.14-.11-.05-.04-.09-.08-.14-.13l-1.95-1.95c-.36-.36-.6-.79-.72-1.25,0-.03-.02-.06-.02-.09-.1-.42-.1-.86-.01-1.28,0-.04,.02-.09,.03-.13,.12-.46,.37-.89,.72-1.25l2.97-2.97c.36-.36,.78-.6,1.23-.72h0s.09-.02,.14-.04c.45-.1,.92-.09,1.37,.03,.38,.1,.74,.29,1.06,.56,.01,0,.02,.02,.03,.03,.05,.05,.1,.09,.15,.14,.05,.05,.1,.1,.14,.15l1.66,1.66c.05,.05,.1,.09,.15,.14,.05,.05,.1,.1,.14,.15,0,.01,.02,.02,.03,.03,.27,.32,.45,.68,.56,1.06,.12,.44,.13,.92,.03,1.36-.01,.05-.02,.09-.04,.14,0,0,0,0,0,0-.13,.45-.37,.88-.72,1.23Zm-5.95,1.96c.54,.54,1.43,.54,1.97,0l2.97-2.97c.5-.5,.54-1.29,.12-1.84,0,0-.01-.02-.02-.02l-.21-.2s-.02-.01-.02-.02l-1.71-1.71s-.01-.01-.02-.02l-.2-.2s-.02-.01-.02-.02c-.55-.42-1.34-.39-1.84,.12l-2.97,2.97c-.54,.54-.54,1.43,0,1.97l1.95,1.95Zm30.51-11.31l-2.97,2.97c-.39,.39-.87,.64-1.38,.76-.17,.04-.34,.06-.52,.07h-.09c-.1,0-.19,0-.29-.01-.02,0-.04,0-.06,0-.03,0-.05,0-.08,0-.03,0-.06,0-.08-.01-.03,0-.06,0-.08-.02-.03,0-.06-.01-.08-.02-.03,0-.06-.01-.08-.02l-.09-.03s-.04-.01-.06-.02c-.09-.03-.18-.07-.27-.11-.02,0-.04-.02-.06-.03-.06-.03-.12-.06-.18-.09-.03-.01-.05-.03-.08-.05-.03-.02-.05-.03-.08-.05-.01,0-.02-.01-.03-.02-.04-.03-.08-.06-.12-.09,0,0,0,0,0,0-.05-.04-.1-.07-.14-.11-.05-.04-.09-.08-.14-.13l-1.95-1.95c-.36-.36-.6-.79-.72-1.25,0-.03-.02-.06-.02-.09-.1-.42-.1-.86-.01-1.28,0-.04,.02-.09,.03-.13,.12-.46,.37-.89,.72-1.25l2.97-2.97c.36-.36,.78-.6,1.23-.72h0s.09-.02,.14-.04c.45-.1,.92-.09,1.37,.03,.38,.1,.74,.29,1.06,.56,.01,0,.02,.02,.03,.03,.05,.05,.1,.09,.15,.14,.05,.05,.1,.1,.14,.15l1.66,1.66c.05,.05,.1,.09,.15,.14,.05,.05,.1,.1,.14,.15,0,.01,.02,.02,.03,.03,.27,.32,.45,.68,.56,1.06,.12,.44,.13,.92,.03,1.36-.01,.05-.02,.09-.04,.14,0,0,0,0,0,0-.13,.45-.37,.88-.72,1.23Zm-5.95,1.96c.54,.54,1.43,.54,1.97,0l2.97-2.97c.5-.5,.54-1.29,.12-1.84,0,0-.01-.02-.02-.02l-.21-.2s-.02-.01-.02-.02l-1.71-1.71s-.01-.01-.02-.02l-.2-.2s-.02-.01-.02-.02c-.55-.42-1.34-.39-1.84,.12l-2.97,2.97c-.54,.54-.54,1.43,0,1.97l1.95,1.95Zm-2.69,6.68l-2.97,2.97c-.39,.39-.87,.64-1.38,.76-.17,.04-.34,.06-.52,.07h-.09c-.1,0-.19,0-.29-.01-.02,0-.04,0-.06,0-.03,0-.05,0-.08,0-.03,0-.06,0-.08-.01-.03,0-.06,0-.08-.02-.03,0-.06-.01-.08-.02-.03,0-.06-.01-.08-.02l-.09-.03s-.04-.01-.06-.02c-.09-.03-.18-.07-.27-.11-.02,0-.04-.02-.06-.03-.06-.03-.12-.06-.18-.09-.03-.01-.05-.03-.08-.05-.03-.02-.05-.03-.08-.05-.01,0-.02-.01-.03-.02-.04-.03-.08-.06-.12-.09,0,0,0,0,0,0-.05-.04-.1-.07-.14-.11-.05-.04-.09-.08-.14-.13l-1.95-1.95c-.36-.36-.6-.79-.72-1.25,0-.03-.02-.06-.02-.09-.1-.42-.1-.86-.01-1.28,0-.04,.02-.09,.03-.13,.12-.46,.37-.89,.72-1.25l2.97-2.97c.36-.36,.78-.6,1.23-.72h0s.09-.02,.14-.04c.45-.1,.92-.09,1.37,.03,.38,.1,.74,.29,1.06,.56,.01,0,.02,.02,.03,.03,.05,.05,.1,.09,.15,.14,.05,.05,.1,.1,.14,.15l1.66,1.66c.05,.05,.1,.09,.15,.14,.05,.05,.1,.1,.14,.15,0,.01,.02,.02,.03,.03,.27,.32,.45,.68,.56,1.06,.12,.44,.13,.92,.03,1.36-.01,.05-.02,.09-.04,.14,0,0,0,0,0,0-.13,.45-.37,.88-.72,1.23Zm-5.95,1.96c.54,.54,1.43,.54,1.97,0l2.97-2.97c.5-.5,.54-1.29,.12-1.84,0,0-.01-.02-.02-.02l-.21-.2s-.02-.01-.02-.02l-1.71-1.71s-.01-.01-.02-.02l-.2-.2s-.02-.01-.02-.02c-.55-.42-1.34-.39-1.84,.12l-2.97,2.97c-.54,.54-.54,1.43,0,1.97l1.95,1.95Zm-2.29,6.28l-2.97,2.97c-.39,.39-.87,.64-1.38,.76-.17,.04-.34,.06-.52,.07h-.09c-.1,0-.19,0-.29-.01-.02,0-.04,0-.06,0-.03,0-.05,0-.08,0-.03,0-.06,0-.08-.01-.03,0-.06,0-.08-.02-.03,0-.06-.01-.08-.02-.03,0-.06-.01-.08-.02l-.09-.03s-.04-.01-.06-.02c-.09-.03-.18-.07-.27-.11-.02,0-.04-.02-.06-.03-.06-.03-.12-.06-.18-.09-.03-.01-.05-.03-.08-.05-.03-.02-.05-.03-.08-.05-.01,0-.02-.01-.03-.02-.04-.03-.08-.06-.12-.09,0,0,0,0,0,0-.05-.04-.1-.07-.14-.11-.05-.04-.09-.08-.14-.13l-1.95-1.95c-.36-.36-.6-.79-.72-1.25,0-.03-.02-.06-.02-.09-.1-.42-.1-.86-.01-1.28,0-.04,.02-.09,.03-.13,.12-.46,.37-.89,.72-1.25l2.97-2.97c.36-.36,.78-.6,1.23-.72h0s.09-.02,.14-.04c.45-.1,.92-.09,1.37,.03,.38,.1,.74,.29,1.06,.56,.01,0,.02,.02,.03,.03,.05,.05,.1,.09,.15,.14,.05,.05,.1,.1,.14,.15l1.66,1.66c.05,.05,.1,.09,.15,.14,.05,.05,.1,.1,.14,.15,0,.01,.02,.02,.03,.03,.27,.32,.45,.68,.56,1.06,.12,.44,.13,.92,.03,1.36-.01,.05-.02,.09-.04,.14,0,0,0,0,0,0-.13,.45-.37,.88-.72,1.23Zm-5.95,1.96c.54,.54,1.43,.54,1.97,0l2.97-2.97c.5-.5,.54-1.29,.12-1.84,0,0-.01-.02-.02-.02l-.21-.2s-.02-.01-.02-.02l-1.71-1.71s-.01-.01-.02-.02l-.2-.2s-.02-.01-.02-.02c-.55-.42-1.34-.39-1.84,.12l-2.97,2.97c-.54,.54-.54,1.43,0,1.97l1.95,1.95Zm-9.9-1.32l-2.97,2.97c-.39,.39-.87,.64-1.38,.76-.17,.04-.34,.06-.52,.07h-.09c-.1,0-.19,0-.29-.01-.02,0-.04,0-.06,0-.03,0-.05,0-.08,0-.03,0-.06,0-.08-.01-.03,0-.06,0-.08-.02-.03,0-.06-.01-.08-.02-.03,0-.06-.01-.08-.02l-.09-.03s-.04-.01-.06-.02c-.09-.03-.18-.07-.27-.11-.02,0-.04-.02-.06-.03-.06-.03-.12-.06-.18-.09-.03-.01-.05-.03-.08-.05-.03-.02-.05-.03-.08-.05-.01,0-.02-.01-.03-.02-.04-.03-.08-.06-.12-.09,0,0,0,0,0,0-.05-.04-.1-.07-.14-.11-.05-.04-.09-.08-.14-.13l-1.95-1.95c-.36-.36-.6-.79-.72-1.25,0-.03-.02-.06-.02-.09-.1-.42-.1-.86-.01-1.28,0-.04,.02-.09,.03-.13,.12-.46,.37-.89,.72-1.25l2.97-2.97c.36-.36,.78-.6,1.23-.72h0s.09-.02,.14-.04c.45-.1,.92-.09,1.37,.03,.38,.1,.74,.29,1.06,.56,.01,0,.02,.02,.03,.03,.05,.05,.1,.09,.15,.14,.05,.05,.1,.1,.14,.15l1.66,1.66c.05,.05,.1,.09,.15,.14,.05,.05,.1,.1,.14,.15,0,.01,.02,.02,.03,.03,.27,.32,.45,.68,.56,1.06,.12,.44,.13,.92,.03,1.36-.01,.05-.02,.09-.04,.14,0,0,0,0,0,0-.13,.45-.37,.88-.72,1.23Zm-5.95,1.96c.54,.54,1.43,.54,1.97,0l2.97-2.97c.5-.5,.54-1.29,.12-1.84,0,0-.01-.02-.02-.02l-.21-.2s-.02-.01-.02-.02l-1.71-1.71s-.01-.01-.02-.02l-.2-.2s-.02-.01-.02-.02c-.55-.42-1.34-.39-1.84,.12l-2.97,2.97c-.54,.54-.54,1.43,0,1.97l1.95,1.95Zm-3.88,22.92l-2.97,2.97c-.39,.39-.87,.64-1.38,.76-.17,.04-.34,.06-.52,.07h-.09c-.1,0-.19,0-.29-.01-.02,0-.04,0-.06,0-.03,0-.05,0-.08,0-.03,0-.06,0-.08-.01-.03,0-.06,0-.08-.02-.03,0-.06-.01-.08-.02-.03,0-.06-.01-.08-.02l-.09-.03s-.04-.01-.06-.02c-.09-.03-.18-.07-.27-.11-.02,0-.04-.02-.06-.03-.06-.03-.12-.06-.18-.09-.03-.01-.05-.03-.08-.05-.03-.02-.05-.03-.08-.05-.01,0-.02-.01-.03-.02-.04-.03-.08-.06-.12-.09,0,0,0,0,0,0-.05-.04-.1-.07-.14-.11-.05-.04-.09-.08-.14-.13l-1.95-1.95c-.36-.36-.6-.79-.72-1.25,0-.03-.02-.06-.02-.09-.1-.42-.1-.86-.01-1.28,0-.04,.02-.09,.03-.13,.12-.46,.37-.89,.72-1.25l2.97-2.97c.36-.36,.78-.6,1.23-.72h0s.09-.02,.14-.04c.45-.1,.92-.09,1.37,.03,.38,.1,.74,.29,1.06,.56,.01,0,.02,.02,.03,.03,.05,.05,.1,.09,.15,.14,.05,.05,.1,.1,.14,.15l1.66,1.66c.05,.05,.1,.09,.15,.14,.05,.05,.1,.1,.14,.15,0,.01,.02,.02,.03,.03,.27,.32,.45,.68,.56,1.06,.12,.44,.13,.92,.03,1.36-.01,.05-.02,.09-.04,.14,0,0,0,0,0,0-.13,.45-.37,.88-.72,1.23Zm-5.95,1.96c.54,.54,1.43,.54,1.97,0l2.97-2.97c.5-.5,.54-1.29,.12-1.84,0,0-.01-.02-.02-.02l-.21-.2s-.02-.01-.02-.02l-1.71-1.71s-.01-.01-.02-.02l-.2-.2s-.02-.01-.02-.02c-.55-.42-1.34-.39-1.84,.12l-2.97,2.97c-.54,.54-.54,1.43,0,1.97l1.95,1.95Zm.32-25.65l-2.97,2.97c-.39,.39-.87,.64-1.38,.76-.17,.04-.34,.06-.52,.07h-.09c-.1,0-.19,0-.29-.01-.02,0-.04,0-.06,0-.03,0-.05,0-.08,0-.03,0-.06,0-.08-.01-.03,0-.06,0-.08-.02-.03,0-.06-.01-.08-.02-.03,0-.06-.01-.08-.02l-.09-.03s-.04-.01-.06-.02c-.09-.03-.18-.07-.27-.11-.02,0-.04-.02-.06-.03-.06-.03-.12-.06-.18-.09-.03-.01-.05-.03-.08-.05-.03-.02-.05-.03-.08-.05-.01,0-.02-.01-.03-.02-.04-.03-.08-.06-.12-.09,0,0,0,0,0,0-.05-.04-.1-.07-.14-.11-.05-.04-.09-.08-.14-.13l-1.95-1.95c-.36-.36-.6-.79-.72-1.25,0-.03-.02-.06-.02-.09-.1-.42-.1-.86-.01-1.28,0-.04,.02-.09,.03-.13,.12-.46,.37-.89,.72-1.25l2.97-2.97c.36-.36,.78-.6,1.23-.72h0s.09-.02,.14-.04c.45-.1,.92-.09,1.37,.03,.38,.1,.74,.29,1.06,.56,.01,0,.02,.02,.03,.03,.05,.05,.1,.09,.15,.14,.05,.05,.1,.1,.14,.15l1.66,1.66c.05,.05,.1,.09,.15,.14,.05,.05,.1,.1,.14,.15,0,.01,.02,.02,.03,.03,.27,.32,.45,.68,.56,1.06,.12,.44,.13,.92,.03,1.36-.01,.05-.02,.09-.04,.14,0,0,0,0,0,0-.13,.45-.37,.88-.72,1.23Zm-5.95,1.96c.54,.54,1.43,.54,1.97,0l2.97-2.97c.5-.5,.54-1.29,.12-1.84,0,0-.01-.02-.02-.02l-.21-.2s-.02-.01-.02-.02l-1.71-1.71s-.01-.01-.02-.02l-.2-.2s-.02-.01-.02-.02c-.55-.42-1.34-.39-1.84,.12l-2.97,2.97c-.54,.54-.54,1.43,0,1.97l1.95,1.95Zm37.83-38.11l-5.93,5.93-1.01-1.01,5.93-5.93-.98-.98,1.01-1.01,1.99,1.99-1.01,1.01Zm15.37-2.38l-5.93,5.93-1.01-1.01,5.93-5.93-.98-.98,1.01-1.01,1.99,1.99-1.01,1.01Zm-8.08,8.4l-5.93,5.93-1.01-1.01,5.93-5.93-.98-.98,1.01-1.01,1.99,1.99-1.01,1.01Zm-8.64,8.64l-5.93,5.93-1.01-1.01,5.93-5.93-.98-.98,1.01-1.01,1.99,1.99-1.01,1.01Zm-25.27,25.28l-5.93,5.93-1.01-1.01,5.93-5.93-.98-.98,1.01-1.01,1.99,1.99-1.01,1.01Zm16.48,0l-5.93,5.93-1.01-1.01,5.93-5.93-.98-.98,1.01-1.01,1.99,1.99-1.01,1.01Zm-8.48,8.48l-5.93,5.93-1.01-1.01,5.93-5.93-.98-.98,1.01-1.01,1.99,1.99-1.01,1.01Zm-16.88,.4l-5.93,5.93-1.01-1.01,5.93-5.93-.98-.98,1.01-1.01,1.99,1.99-1.01,1.01Zm10.38-24.17l-5.93,5.93-1.01-1.01,5.93-5.93-.98-.98,1.01-1.01,1.99,1.99-1.01,1.01Zm-17.43,17.43l-5.93,5.93-1.01-1.01,5.93-5.93-.98-.98,1.01-1.01,1.99,1.99-1.01,1.01Z"/>
    </g>
  </g>
  <polyline class="cls-2" points="90.28 26.77 47.97 26.75 91.73 71.4 66.9 95.83 66.9 135.76 111.46 90.76"/>
  <circle class="cls-2" cx="92.37" cy="26.81" r="1.86"/>
  <circle class="cls-2" cx="150.79" cy="18.46" r="1.86"/>
  <circle class="cls-2" cx="142.65" cy="57.87" r="1.86"/>
  <circle class="cls-2" cx="121.1" cy="114.57" r="1.86"/>
  <circle class="cls-2" cx="160.72" cy="122.65" r="1.86"/>
  <circle class="cls-2" cx="112.93" cy="89.28" r="1.86"/>
  <polyline class="cls-2" points="144.29 56.46 150.44 50.21 150.82 20.64"/>
  <polyline class="cls-2" points="122.68 115.91 128.92 122.06 158.49 122.44"/>
</svg>